<svg xmlns="http://www.w3.org/2000/svg" id="canvas" viewBox="205.031 211.238 1094.335 323.482"><path d="M 209.45,302.14 C 210.29 301.69, 210.89 301.03, 212.25 299.12 C 213.60 297.20, 214.25 295.90, 216.23 292.55 C 218.20 289.20, 219.43 286.92, 222.11 282.38 C 224.79 277.85, 226.48 275.16, 229.63 269.88 C 232.78 264.60, 234.62 261.49, 237.87 255.98 C 241.12 250.47, 242.87 247.42, 245.90 242.33 C 248.92 237.24, 250.45 234.63, 253.00 230.55 C 255.55 226.46, 256.89 224.71, 258.64 221.91 C 260.38 219.10, 260.90 217.95, 261.72 216.53 C 262.53 215.11, 262.62 215.26, 262.73 214.80 C 262.84 214.35, 262.82 214.17, 262.28 214.26 C 261.74 214.34, 261.26 214.00, 260.02 215.20 C 258.78 216.41, 257.88 217.46, 256.08 220.29 C 254.27 223.12, 253.37 225.15, 250.98 229.35 C 248.59 233.54, 247.08 236.16, 244.11 241.28 C 241.14 246.40, 239.40 249.46, 236.12 254.94 C 232.85 260.43, 231.00 263.52, 227.74 268.72 C 224.48 273.92, 222.71 276.55, 219.82 280.95 C 216.93 285.35, 215.40 287.45, 213.27 290.72 C 211.14 293.99, 210.22 295.16, 209.18 297.29 C 208.13 299.42, 207.99 300.39, 208.04 301.36 C 208.09 302.33, 208.61 302.59, 209.45 302.14" style="stroke: black; fill: black;"/><path d="M 232.47,261.50 C 231.80 262.94, 231.31 264.93, 230.79 268.95 C 230.27 272.96, 230.06 276.00, 229.87 281.56 C 229.69 287.13, 229.64 290.79, 229.85 296.76 C 230.07 302.73, 230.35 305.84, 230.96 311.40 C 231.58 316.96, 231.99 319.71, 232.93 324.55 C 233.86 329.39, 234.36 331.65, 235.64 335.60 C 236.91 339.54, 237.59 341.32, 239.30 344.28 C 241.00 347.23, 241.99 348.54, 244.17 350.36 C 246.35 352.19, 247.65 352.81, 250.20 353.39 C 252.75 353.97, 254.17 354.05, 256.92 353.25 C 259.66 352.46, 261.09 351.75, 263.91 349.43 C 266.73 347.10, 268.08 345.58, 271.01 341.64 C 273.95 337.69, 275.46 335.31, 278.58 329.71 C 281.69 324.10, 283.34 320.65, 286.59 313.61 C 289.84 306.58, 291.61 302.31, 294.83 294.53 C 298.05 286.75, 299.76 282.31, 302.70 274.71 C 305.64 267.11, 307.09 263.11, 309.52 256.54 C 311.96 249.98, 313.07 246.81, 314.88 241.88 C 316.68 236.95, 317.65 234.94, 318.53 231.88 C 319.42 228.82, 319.47 227.73, 319.31 226.57 C 319.14 225.41, 318.51 225.25, 317.71 226.10 C 316.91 226.94, 316.07 227.85, 315.33 230.80 C 314.58 233.75, 314.66 235.88, 313.98 240.82 C 313.30 245.77, 312.90 248.89, 311.94 255.52 C 310.99 262.15, 310.38 266.09, 309.21 273.98 C 308.04 281.87, 307.39 286.31, 306.10 294.97 C 304.82 303.62, 304.13 308.29, 302.79 317.26 C 301.46 326.23, 300.79 330.94, 299.44 339.83 C 298.10 348.72, 297.42 353.20, 296.07 361.71 C 294.71 370.23, 294.03 374.45, 292.66 382.42 C 291.29 390.38, 290.64 394.31, 289.22 401.53 C 287.80 408.75, 287.06 412.21, 285.55 418.52 C 284.04 424.82, 283.26 427.83, 281.68 433.07 C 280.10 438.31, 279.30 440.74, 277.66 444.73 C 276.01 448.72, 275.03 450.37, 273.46 453.04 C 271.89 455.70, 271.10 456.69, 269.79 458.07 C 268.48 459.45, 267.96 459.83, 266.91 459.95 C 265.85 460.07, 265.46 459.81, 264.51 458.66 C 263.57 457.51, 263.21 456.66, 262.19 454.21 C 261.17 451.76, 260.27 450.25, 259.42 446.41 C 258.56 442.56, 258.10 440.07, 257.90 434.98 C 257.69 429.88, 257.72 426.87, 258.39 420.92 C 259.05 414.98, 259.62 411.62, 261.22 405.26 C 262.83 398.91, 263.94 395.47, 266.41 389.14 C 268.88 382.82, 270.41 379.60, 273.59 373.65 C 276.78 367.70, 278.58 364.76, 282.35 359.38 C 286.11 354.00, 288.21 351.44, 292.41 346.75 C 296.61 342.07, 298.90 339.89, 303.33 335.97 C 307.76 332.04, 310.12 330.25, 314.56 327.12 C 319.00 323.99, 321.32 322.64, 325.52 320.32 C 329.73 318.00, 331.83 317.10, 335.59 315.51 C 339.35 313.92, 341.12 313.37, 344.33 312.35 C 347.53 311.34, 349.02 311.17, 351.63 310.42 C 354.24 309.67, 355.55 309.29, 357.38 308.60 C 359.21 307.91, 359.79 307.61, 360.79 306.95 C 361.80 306.29, 362.05 305.89, 362.39 305.30 C 362.72 304.70, 362.62 304.30, 362.47 303.97 C 362.32 303.65, 361.90 303.67, 361.64 303.69 C 361.37 303.70, 361.55 303.91, 361.14 304.04 C 360.74 304.18, 360.58 304.12, 359.61 304.36 C 358.64 304.61, 358.11 304.76, 356.29 305.25 C 354.47 305.74, 353.13 305.98, 350.53 306.82 C 347.93 307.66, 346.49 308.18, 343.29 309.43 C 340.09 310.69, 338.29 311.33, 334.51 313.11 C 330.73 314.88, 328.62 315.85, 324.38 318.31 C 320.15 320.78, 317.82 322.18, 313.35 325.42 C 308.88 328.67, 306.51 330.51, 302.05 334.53 C 297.59 338.55, 295.27 340.77, 291.04 345.54 C 286.81 350.30, 284.69 352.91, 280.89 358.37 C 277.09 363.82, 275.28 366.80, 272.04 372.82 C 268.81 378.84, 267.27 382.09, 264.73 388.48 C 262.20 394.88, 261.06 398.35, 259.36 404.78 C 257.67 411.22, 257.05 414.61, 256.24 420.66 C 255.43 426.71, 255.32 429.76, 255.31 435.03 C 255.29 440.29, 255.57 442.83, 256.16 447.00 C 256.76 451.17, 257.05 453.06, 258.27 455.87 C 259.50 458.69, 260.53 459.75, 262.30 461.08 C 264.08 462.42, 265.23 462.69, 267.15 462.53 C 269.07 462.36, 270.11 461.87, 271.91 460.27 C 273.70 458.68, 274.52 457.48, 276.11 454.54 C 277.71 451.60, 278.40 449.77, 279.90 445.59 C 281.39 441.40, 282.12 438.95, 283.58 433.62 C 285.05 428.28, 285.79 425.26, 287.22 418.91 C 288.65 412.55, 289.37 409.08, 290.73 401.83 C 292.10 394.58, 292.73 390.64, 294.07 382.66 C 295.40 374.68, 296.07 370.45, 297.41 361.93 C 298.75 353.40, 299.42 348.92, 300.76 340.03 C 302.11 331.13, 302.79 326.43, 304.14 317.46 C 305.50 308.50, 306.21 303.83, 307.55 295.19 C 308.90 286.54, 309.58 282.10, 310.87 274.24 C 312.16 266.37, 312.80 262.44, 314.02 255.86 C 315.23 249.28, 315.87 246.20, 316.94 241.35 C 318.02 236.51, 318.92 234.61, 319.40 231.64 C 319.87 228.67, 319.65 227.60, 319.34 226.50 C 319.03 225.41, 318.55 225.27, 317.83 226.18 C 317.12 227.08, 316.76 228.03, 315.79 231.04 C 314.81 234.05, 314.52 236.24, 312.95 241.23 C 311.39 246.21, 310.29 249.39, 307.95 255.97 C 305.61 262.56, 304.17 266.56, 301.26 274.15 C 298.34 281.74, 296.63 286.18, 293.38 293.92 C 290.13 301.67, 288.34 305.93, 285.01 312.87 C 281.69 319.82, 279.98 323.24, 276.76 328.66 C 273.55 334.09, 271.91 336.38, 268.92 340.00 C 265.93 343.62, 264.43 344.82, 261.82 346.76 C 259.20 348.71, 258.05 349.06, 255.87 349.73 C 253.69 350.40, 252.82 350.51, 250.92 350.11 C 249.02 349.71, 248.16 349.21, 246.37 347.72 C 244.59 346.23, 243.63 345.25, 241.98 342.65 C 240.34 340.06, 239.50 338.45, 238.14 334.74 C 236.78 331.03, 236.20 328.81, 235.20 324.09 C 234.20 319.37, 233.75 316.64, 233.15 311.16 C 232.54 305.68, 232.32 302.59, 232.18 296.69 C 232.03 290.79, 232.16 287.16, 232.43 281.67 C 232.69 276.18, 233.17 273.22, 233.52 269.24 C 233.87 265.26, 234.37 263.32, 234.17 261.77 C 233.96 260.22, 233.15 260.07, 232.47 261.50" style="stroke: black; fill: black;"/><path d="M 393.92,295.24 C 393.49 294.68, 392.85 294.31, 391.62 294.16 C 390.38 294.02, 389.57 293.89, 387.74 294.51 C 385.91 295.12, 384.62 295.33, 382.48 297.22 C 380.34 299.11, 379.30 300.39, 377.03 303.95 C 374.77 307.51, 373.54 309.72, 371.14 315.01 C 368.74 320.30, 367.25 323.62, 365.04 330.39 C 362.82 337.17, 361.61 341.41, 360.06 348.90 C 358.51 356.38, 357.85 360.75, 357.27 367.82 C 356.68 374.90, 356.63 378.53, 357.14 384.28 C 357.65 390.04, 358.24 392.58, 359.82 396.59 C 361.39 400.61, 362.50 402.21, 365.01 404.36 C 367.52 406.51, 369.24 407.16, 372.35 407.34 C 375.47 407.53, 377.33 407.06, 380.58 405.29 C 383.82 403.51, 385.48 402.12, 388.56 398.47 C 391.65 394.82, 393.21 392.42, 395.99 387.01 C 398.78 381.61, 400.18 378.22, 402.49 371.43 C 404.79 364.65, 405.88 360.53, 407.54 353.10 C 409.20 345.67, 409.86 341.39, 410.78 334.28 C 411.69 327.17, 411.92 323.51, 412.12 317.53 C 412.33 311.56, 412.17 308.86, 411.79 304.39 C 411.41 299.93, 411.13 298.09, 410.24 295.20 C 409.35 292.31, 408.44 291.37, 407.35 289.95 C 406.26 288.53, 405.46 288.31, 404.80 288.08 C 404.13 287.84, 403.92 288.16, 404.04 288.77 C 404.15 289.38, 404.72 289.67, 405.37 291.14 C 406.02 292.61, 406.46 293.40, 407.28 296.11 C 408.11 298.81, 408.91 300.37, 409.49 304.65 C 410.08 308.92, 410.30 311.60, 410.21 317.49 C 410.13 323.37, 409.93 327.02, 409.05 334.06 C 408.18 341.11, 407.52 345.37, 405.85 352.72 C 404.18 360.07, 403.07 364.16, 400.71 370.82 C 398.35 377.47, 396.88 380.81, 394.05 385.98 C 391.22 391.16, 389.54 393.40, 386.54 396.71 C 383.55 400.02, 381.90 401.03, 379.09 402.52 C 376.28 404.01, 374.95 404.21, 372.50 404.15 C 370.04 404.08, 368.92 403.87, 366.81 402.18 C 364.71 400.50, 363.51 399.34, 361.96 395.72 C 360.41 392.10, 359.66 389.65, 359.07 384.10 C 358.48 378.55, 358.48 374.93, 359.03 367.96 C 359.57 361.00, 360.21 356.65, 361.79 349.26 C 363.36 341.87, 364.59 337.66, 366.89 331.02 C 369.19 324.38, 370.74 321.09, 373.30 316.05 C 375.86 311.00, 377.28 308.89, 379.68 305.81 C 382.08 302.73, 383.40 302.11, 385.31 300.64 C 387.23 299.16, 387.94 299.03, 389.25 298.44 C 390.56 297.85, 390.95 297.97, 391.85 297.68 C 392.75 297.39, 393.34 297.49, 393.75 297.00 C 394.16 296.52, 394.35 295.81, 393.92 295.24" style="stroke: black; fill: black;"/><path d="M 438.74,291.42 C 438.09 291.99, 437.54 292.37, 436.87 294.65 C 436.19 296.94, 436.00 298.46, 435.37 302.85 C 434.74 307.25, 434.41 310.28, 433.73 316.63 C 433.06 322.98, 432.61 327.13, 431.98 334.62 C 431.34 342.11, 430.93 346.64, 430.55 354.08 C 430.18 361.52, 430.00 365.47, 430.10 371.83 C 430.20 378.18, 430.33 381.14, 431.04 385.84 C 431.75 390.54, 432.13 392.51, 433.65 395.34 C 435.17 398.17, 436.33 399.10, 438.62 399.99 C 440.91 400.89, 442.49 400.98, 445.10 399.82 C 447.72 398.65, 449.00 397.44, 451.69 394.16 C 454.38 390.88, 455.71 388.71, 458.55 383.43 C 461.40 378.14, 462.92 374.74, 465.92 367.76 C 468.91 360.78, 470.54 356.35, 473.53 348.51 C 476.53 340.67, 478.16 335.95, 480.90 328.55 C 483.63 321.14, 485.03 317.12, 487.21 311.49 C 489.38 305.85, 490.67 303.23, 491.76 300.37 C 492.85 297.52, 492.61 296.66, 492.65 297.20 C 492.69 297.75, 492.25 299.14, 491.94 303.09 C 491.64 307.05, 491.54 310.37, 491.13 316.99 C 490.71 323.60, 490.36 328.22, 489.86 336.17 C 489.37 344.11, 489.01 348.95, 488.66 356.70 C 488.32 364.46, 488.14 368.51, 488.14 374.96 C 488.13 381.41, 488.23 384.29, 488.65 388.96 C 489.06 393.63, 489.22 395.56, 490.20 398.32 C 491.18 401.08, 492.32 401.60, 493.56 402.74 C 494.81 403.88, 495.37 403.90, 496.42 404.04 C 497.47 404.17, 498.07 403.90, 498.82 403.43 C 499.56 402.95, 499.99 402.32, 500.13 401.66 C 500.26 401.00, 499.97 400.43, 499.48 400.12 C 499.00 399.82, 498.18 399.97, 497.69 400.13 C 497.21 400.28, 497.16 400.61, 497.06 400.90 C 496.95 401.19, 497.24 401.34, 497.18 401.59 C 497.11 401.83, 497.11 402.21, 496.73 402.12 C 496.35 402.02, 496.02 402.08, 495.28 401.12 C 494.54 400.16, 493.90 399.79, 493.01 397.31 C 492.12 394.83, 491.44 393.19, 490.83 388.72 C 490.21 384.24, 490.03 381.34, 489.94 374.95 C 489.85 368.56, 490.01 364.51, 490.37 356.78 C 490.73 349.05, 491.12 344.22, 491.73 336.30 C 492.35 328.37, 492.85 323.78, 493.42 317.16 C 493.99 310.54, 494.62 307.28, 494.60 303.19 C 494.57 299.09, 494.28 297.47, 493.28 296.71 C 492.29 295.94, 491.18 296.54, 489.61 299.36 C 488.03 302.18, 487.45 305.09, 485.40 310.81 C 483.35 316.54, 482.03 320.56, 479.36 327.99 C 476.68 335.41, 475.04 340.12, 472.01 347.93 C 468.99 355.73, 467.32 360.14, 464.23 367.02 C 461.14 373.89, 459.51 377.26, 456.55 382.30 C 453.59 387.34, 451.99 389.30, 449.41 392.22 C 446.83 395.14, 445.65 395.81, 443.67 396.90 C 441.69 397.99, 441.03 398.23, 439.52 397.66 C 438.02 397.09, 437.39 396.47, 436.13 394.03 C 434.87 391.60, 434.05 389.92, 433.22 385.47 C 432.39 381.02, 432.15 378.05, 431.97 371.78 C 431.79 365.52, 431.94 361.57, 432.32 354.17 C 432.70 346.77, 433.12 342.24, 433.87 334.79 C 434.61 327.34, 435.12 323.21, 436.04 316.92 C 436.95 310.64, 437.61 307.67, 438.43 303.37 C 439.26 299.06, 439.83 297.70, 440.17 295.38 C 440.52 293.07, 440.43 292.59, 440.14 291.80 C 439.86 291.00, 439.40 290.85, 438.74 291.42" style="stroke: black; fill: black;"/><path d="M 528.68,312.45 C 528.17 313.33, 527.79 314.10, 527.62 316.86 C 527.45 319.62, 527.78 321.54, 527.83 326.26 C 527.89 330.99, 527.91 334.30, 527.90 340.50 C 527.89 346.71, 527.92 350.67, 527.78 357.28 C 527.64 363.90, 527.49 367.62, 527.21 373.57 C 526.94 379.53, 526.64 382.62, 526.41 387.05 C 526.18 391.48, 525.84 393.42, 526.06 395.74 C 526.28 398.07, 526.87 398.75, 527.49 398.68 C 528.12 398.62, 528.89 397.96, 529.19 395.42 C 529.49 392.87, 529.05 390.82, 529.00 385.95 C 528.95 381.07, 528.72 377.65, 528.95 371.05 C 529.19 364.46, 529.29 360.22, 530.19 352.97 C 531.08 345.72, 531.72 341.59, 533.43 334.81 C 535.13 328.04, 536.32 324.66, 538.73 319.09 C 541.13 313.51, 542.54 311.05, 545.43 306.94 C 548.33 302.82, 549.95 301.26, 553.21 298.53 C 556.47 295.79, 558.26 294.85, 561.73 293.26 C 565.20 291.67, 567.29 291.30, 570.56 290.59 C 573.83 289.88, 575.58 290.08, 578.07 289.72 C 580.57 289.36, 582.03 289.27, 583.02 288.80 C 584.01 288.33, 584.06 287.85, 583.02 287.38 C 581.99 286.91, 580.49 286.44, 577.84 286.44 C 575.20 286.44, 573.27 286.51, 569.81 287.39 C 566.35 288.26, 564.16 288.93, 560.53 290.80 C 556.91 292.67, 555.03 293.76, 551.67 296.75 C 548.32 299.75, 546.68 301.45, 543.75 305.77 C 540.82 310.09, 539.43 312.64, 537.03 318.36 C 534.62 324.09, 533.45 327.50, 531.70 334.38 C 529.96 341.25, 529.33 345.42, 528.32 352.73 C 527.32 360.04, 527.15 364.29, 526.68 370.93 C 526.22 377.57, 526.17 381.01, 526.00 385.91 C 525.82 390.80, 525.51 392.85, 525.79 395.40 C 526.07 397.95, 526.80 398.58, 527.39 398.66 C 527.99 398.74, 528.47 398.10, 528.77 395.80 C 529.08 393.49, 528.82 391.57, 528.93 387.15 C 529.04 382.72, 529.13 379.62, 529.32 373.65 C 529.51 367.69, 529.67 363.96, 529.87 357.33 C 530.06 350.71, 530.11 346.75, 530.29 340.54 C 530.48 334.34, 530.63 331.03, 530.81 326.30 C 530.99 321.57, 531.30 319.66, 531.18 316.89 C 531.06 314.12, 530.70 313.36, 530.20 312.47 C 529.70 311.58, 529.20 311.58, 528.68 312.45" style="stroke: black; fill: black;"/><path d="M 736.37,287.88 C 735.99 287.11, 735.29 286.40, 733.76 285.63 C 732.22 284.85, 731.16 284.22, 728.71 283.99 C 726.26 283.76, 724.57 283.51, 721.51 284.47 C 718.45 285.43, 716.92 286.25, 713.42 288.81 C 709.92 291.36, 707.95 292.90, 704.00 297.25 C 700.04 301.60, 697.78 304.32, 693.65 310.55 C 689.51 316.79, 687.10 320.71, 683.33 328.41 C 679.56 336.11, 677.57 340.85, 674.81 349.05 C 672.04 357.25, 670.79 361.87, 669.50 369.43 C 668.22 376.99, 667.93 380.79, 668.36 386.84 C 668.79 392.90, 669.50 395.57, 671.67 399.71 C 673.84 403.86, 675.53 405.48, 679.22 407.55 C 682.91 409.63, 685.30 410.05, 690.11 410.09 C 694.93 410.13, 697.75 409.60, 703.31 407.78 C 708.87 405.95, 712.46 404.03, 717.91 400.96 C 723.36 397.89, 726.35 395.57, 730.57 392.44 C 734.79 389.30, 737.53 386.98, 739.01 385.29 C 740.49 383.61, 739.91 382.93, 737.97 384.01 C 736.03 385.10, 733.55 387.72, 729.32 390.72 C 725.09 393.72, 722.16 396.03, 716.82 399.01 C 711.48 402.00, 707.95 403.89, 702.61 405.63 C 697.27 407.38, 694.59 407.77, 690.13 407.75 C 685.67 407.74, 683.66 407.35, 680.33 405.55 C 677.00 403.75, 675.51 402.53, 673.46 398.76 C 671.42 394.99, 670.59 392.52, 670.11 386.71 C 669.63 380.89, 669.82 377.12, 671.04 369.69 C 672.27 362.25, 673.49 357.65, 676.23 349.53 C 678.97 341.42, 680.96 336.70, 684.75 329.11 C 688.53 321.52, 690.98 317.64, 695.16 311.58 C 699.34 305.52, 701.66 302.87, 705.65 298.81 C 709.63 294.76, 711.70 293.36, 715.09 291.30 C 718.48 289.23, 719.94 289.05, 722.59 288.48 C 725.23 287.91, 726.33 288.31, 728.33 288.46 C 730.33 288.60, 731.11 289.00, 732.58 289.21 C 734.04 289.42, 734.88 289.77, 735.64 289.50 C 736.40 289.24, 736.75 288.66, 736.37 287.88" style="stroke: black; fill: black;"/><path d="M 791.53,301.50 C 791.16 300.66, 790.39 299.69, 788.77 298.94 C 787.15 298.18, 785.96 297.56, 783.44 297.72 C 780.93 297.87, 779.14 297.87, 776.20 299.71 C 773.25 301.55, 771.75 303.00, 768.72 306.90 C 765.70 310.81, 764.05 313.36, 761.08 319.22 C 758.12 325.09, 756.37 328.96, 753.90 336.23 C 751.42 343.49, 750.18 348.05, 748.71 355.55 C 747.24 363.05, 746.73 367.27, 746.54 373.72 C 746.36 380.17, 746.60 383.17, 747.80 387.78 C 749.00 392.40, 750.04 394.25, 752.55 396.79 C 755.06 399.32, 756.94 400.07, 760.35 400.45 C 763.75 400.84, 765.85 400.38, 769.58 398.72 C 773.30 397.06, 775.32 395.69, 778.97 392.15 C 782.63 388.60, 784.59 386.25, 787.86 380.98 C 791.14 375.70, 792.77 372.36, 795.34 365.78 C 797.91 359.20, 799.07 355.18, 800.73 348.09 C 802.39 341.00, 802.98 336.94, 803.64 330.31 C 804.30 323.69, 804.25 320.32, 804.03 314.96 C 803.80 309.61, 803.37 307.27, 802.51 303.54 C 801.65 299.80, 800.97 298.38, 799.72 296.28 C 798.47 294.18, 797.44 293.83, 796.26 293.06 C 795.07 292.28, 794.38 292.36, 793.79 292.42 C 793.21 292.47, 793.13 292.87, 793.34 293.32 C 793.56 293.77, 794.12 293.78, 794.88 294.67 C 795.64 295.56, 796.11 295.85, 797.13 297.75 C 798.14 299.65, 799.01 300.71, 799.98 304.18 C 800.94 307.64, 801.57 309.89, 801.94 315.08 C 802.31 320.27, 802.40 323.62, 801.81 330.14 C 801.22 336.66, 800.63 340.69, 798.99 347.68 C 797.35 354.67, 796.18 358.66, 793.59 365.09 C 791.01 371.52, 789.33 374.79, 786.06 379.84 C 782.79 384.88, 780.77 387.06, 777.24 390.31 C 773.71 393.56, 771.74 394.63, 768.41 396.09 C 765.09 397.54, 763.44 397.80, 760.63 397.58 C 757.81 397.36, 756.48 397.06, 754.33 394.99 C 752.17 392.92, 751.04 391.48, 749.85 387.23 C 748.66 382.99, 748.27 380.03, 748.38 373.76 C 748.50 367.49, 748.97 363.27, 750.41 355.88 C 751.86 348.50, 753.11 343.96, 755.62 336.82 C 758.13 329.69, 759.93 325.85, 762.97 320.21 C 766.01 314.57, 767.81 312.08, 770.83 308.64 C 773.86 305.20, 775.52 304.34, 778.10 302.99 C 780.67 301.64, 781.79 302.00, 783.69 301.89 C 785.59 301.78, 786.22 302.20, 787.61 302.44 C 788.99 302.69, 789.85 303.29, 790.64 303.10 C 791.42 302.91, 791.90 302.33, 791.53 301.50" style="stroke: black; fill: black;"/><path d="M 832.58,292.82 C 832.00 293.55, 831.56 294.06, 831.15 296.60 C 830.75 299.14, 830.90 300.85, 830.56 305.53 C 830.22 310.20, 830.05 313.38, 829.45 319.96 C 828.84 326.54, 828.41 330.86, 827.53 338.42 C 826.66 345.99, 826.05 350.48, 825.07 357.78 C 824.10 365.09, 823.51 368.93, 822.65 374.94 C 821.78 380.95, 821.22 383.78, 820.74 387.84 C 820.26 391.89, 819.98 393.43, 820.26 395.22 C 820.53 397.01, 821.29 397.46, 822.14 396.80 C 822.98 396.14, 823.64 395.24, 824.46 391.94 C 825.29 388.64, 825.23 386.08, 826.25 380.30 C 827.27 374.52, 827.79 370.56, 829.56 363.04 C 831.33 355.52, 832.49 350.69, 835.09 342.72 C 837.69 334.74, 839.45 330.13, 842.56 323.16 C 845.67 316.18, 847.53 312.72, 850.66 307.83 C 853.79 302.94, 855.61 301.11, 858.21 298.72 C 860.81 296.33, 861.92 295.84, 863.65 295.88 C 865.37 295.92, 865.68 296.43, 866.83 298.90 C 867.98 301.36, 868.71 303.33, 869.41 308.21 C 870.10 313.08, 870.30 316.62, 870.30 323.27 C 870.31 329.91, 869.98 334.24, 869.43 341.42 C 868.88 348.60, 868.31 352.79, 867.54 359.17 C 866.78 365.56, 866.23 368.71, 865.61 373.34 C 864.99 377.98, 864.40 379.85, 864.45 382.35 C 864.50 384.84, 864.98 385.63, 865.86 385.84 C 866.74 386.04, 867.73 385.76, 868.86 383.39 C 869.99 381.02, 870.12 378.94, 871.52 374.00 C 872.93 369.06, 873.69 365.53, 875.87 358.67 C 878.06 351.82, 879.49 347.25, 882.46 339.73 C 885.43 332.22, 887.37 327.69, 890.73 321.10 C 894.10 314.51, 896.06 311.21, 899.27 306.76 C 902.48 302.32, 904.30 300.85, 906.76 298.89 C 909.22 296.93, 910.04 296.52, 911.57 296.95 C 913.11 297.39, 913.40 298.11, 914.45 301.07 C 915.50 304.02, 916.14 306.32, 916.82 311.72 C 917.50 317.12, 917.70 320.94, 917.86 328.08 C 918.02 335.22, 917.88 339.75, 917.62 347.43 C 917.37 355.11, 916.99 359.50, 916.59 366.46 C 916.18 373.43, 915.86 376.85, 915.61 382.25 C 915.35 387.65, 914.94 390.18, 915.30 393.47 C 915.67 396.77, 916.42 397.60, 917.43 398.75 C 918.44 399.89, 919.39 399.50, 920.35 399.19 C 921.31 398.88, 922.09 397.82, 922.23 397.21 C 922.36 396.59, 921.53 396.02, 921.02 396.14 C 920.51 396.25, 920.12 397.45, 919.70 397.78 C 919.27 398.11, 919.24 398.70, 918.91 397.78 C 918.58 396.87, 918.30 396.30, 918.06 393.21 C 917.81 390.12, 917.62 387.65, 917.68 382.31 C 917.75 376.98, 918.03 373.52, 918.38 366.56 C 918.72 359.60, 919.10 355.20, 919.41 347.50 C 919.71 339.79, 919.91 335.26, 919.89 328.05 C 919.86 320.84, 919.82 317.05, 919.27 311.44 C 918.72 305.84, 918.55 303.30, 917.11 300.01 C 915.68 296.71, 914.47 295.58, 912.10 294.97 C 909.74 294.36, 908.18 294.84, 905.29 296.97 C 902.40 299.11, 900.89 300.97, 897.67 305.63 C 894.45 310.30, 892.56 313.63, 889.19 320.32 C 885.82 327.01, 883.88 331.54, 880.82 339.08 C 877.76 346.61, 876.27 351.18, 873.87 358.00 C 871.47 364.82, 870.45 368.31, 868.84 373.17 C 867.22 378.03, 866.35 379.85, 865.78 382.30 C 865.21 384.75, 865.70 385.38, 865.97 385.43 C 866.24 385.47, 866.73 384.90, 867.13 382.54 C 867.52 380.17, 867.46 378.25, 867.93 373.62 C 868.41 368.99, 868.81 365.80, 869.49 359.40 C 870.18 352.99, 870.76 348.80, 871.36 341.58 C 871.95 334.36, 872.36 330.03, 872.48 323.29 C 872.61 316.55, 872.61 313.02, 871.99 307.87 C 871.38 302.72, 871.07 300.35, 869.41 297.53 C 867.76 294.70, 866.27 293.85, 863.72 293.74 C 861.16 293.64, 859.58 294.38, 856.65 297.00 C 853.72 299.62, 852.20 301.74, 849.08 306.84 C 845.96 311.94, 844.17 315.42, 841.06 322.49 C 837.95 329.56, 836.20 334.18, 833.53 342.20 C 830.86 350.22, 829.67 355.06, 827.71 362.58 C 825.75 370.10, 825.04 374.05, 823.73 379.79 C 822.42 385.53, 821.66 387.94, 821.14 391.26 C 820.62 394.58, 820.91 395.58, 821.14 396.38 C 821.37 397.19, 821.88 396.95, 822.30 395.30 C 822.71 393.65, 822.77 392.15, 823.23 388.12 C 823.68 384.10, 823.85 381.21, 824.57 375.19 C 825.29 369.17, 825.86 365.32, 826.82 358.01 C 827.79 350.71, 828.40 346.21, 829.37 338.65 C 830.34 331.08, 830.85 326.76, 831.67 320.20 C 832.50 313.63, 832.91 310.47, 833.49 305.82 C 834.07 301.16, 834.47 299.51, 834.58 296.94 C 834.69 294.38, 834.43 293.81, 834.03 292.99 C 833.63 292.16, 833.15 292.10, 832.58 292.82" style="stroke: black; fill: black;"/><path d="M 957.52,302.46 C 956.99 303.23, 956.52 303.65, 956.26 306.39 C 956.00 309.13, 956.31 310.88, 956.22 316.16 C 956.13 321.44, 956.06 324.97, 955.80 332.79 C 955.53 340.61, 955.38 345.66, 954.90 355.27 C 954.42 364.88, 954.08 370.56, 953.40 380.81 C 952.72 391.07, 952.27 396.61, 951.52 406.55 C 950.76 416.49, 950.36 421.64, 949.62 430.50 C 948.89 439.36, 948.51 443.68, 947.85 450.83 C 947.20 457.98, 946.81 461.36, 946.35 466.27 C 945.89 471.18, 945.52 473.10, 945.55 475.39 C 945.58 477.68, 946.21 478.22, 946.51 477.71 C 946.81 477.19, 947.16 476.28, 947.03 472.80 C 946.90 469.33, 946.30 466.69, 945.84 460.32 C 945.39 453.95, 944.96 449.66, 944.77 440.95 C 944.58 432.25, 944.47 426.84, 944.89 416.79 C 945.30 406.74, 945.62 400.97, 946.84 390.70 C 948.06 380.43, 948.91 375.03, 950.99 365.44 C 953.07 355.84, 954.42 351.06, 957.23 342.71 C 960.03 334.36, 961.71 330.37, 965.02 323.68 C 968.34 316.98, 970.24 313.95, 973.82 309.25 C 977.41 304.54, 979.41 302.69, 982.94 300.15 C 986.48 297.61, 988.35 297.00, 991.52 296.55 C 994.68 296.10, 996.13 296.41, 998.77 297.88 C 1001.41 299.35, 1002.71 300.61, 1004.72 303.90 C 1006.73 307.20, 1007.72 309.53, 1008.82 314.36 C 1009.92 319.19, 1010.26 322.28, 1010.21 328.07 C 1010.16 333.85, 1009.79 337.27, 1008.57 343.27 C 1007.35 349.27, 1006.32 352.53, 1004.12 358.06 C 1001.92 363.58, 1000.46 366.38, 997.57 370.91 C 994.67 375.44, 992.92 377.48, 989.66 380.70 C 986.40 383.92, 984.54 385.21, 981.27 387.01 C 978.00 388.81, 976.27 389.25, 973.31 389.71 C 970.34 390.16, 968.89 389.95, 966.45 389.28 C 964.02 388.60, 962.92 387.63, 961.14 386.35 C 959.35 385.06, 958.64 384.10, 957.53 382.87 C 956.43 381.64, 956.18 381.01, 955.62 380.18 C 955.06 379.36, 954.95 379.19, 954.73 378.76 C 954.52 378.33, 954.75 378.26, 954.54 378.05 C 954.33 377.83, 954.06 377.54, 953.70 377.69 C 953.34 377.84, 952.92 378.04, 952.73 378.80 C 952.54 379.55, 952.35 380.18, 952.73 381.47 C 953.11 382.76, 953.40 383.63, 954.63 385.24 C 955.86 386.86, 956.69 388.02, 958.88 389.54 C 961.07 391.07, 962.59 392.22, 965.58 392.86 C 968.58 393.51, 970.46 393.49, 973.87 392.78 C 977.27 392.07, 979.12 391.41, 982.61 389.33 C 986.10 387.24, 987.97 385.80, 991.32 382.35 C 994.66 378.89, 996.42 376.74, 999.35 372.03 C 1002.29 367.32, 1003.75 364.47, 1006.00 358.80 C 1008.24 353.13, 1009.29 349.83, 1010.58 343.69 C 1011.87 337.55, 1012.30 334.07, 1012.43 328.10 C 1012.57 322.13, 1012.33 318.96, 1011.26 313.83 C 1010.19 308.70, 1009.32 306.15, 1007.09 302.47 C 1004.86 298.78, 1003.30 297.10, 1000.11 295.41 C 996.92 293.72, 994.82 293.43, 991.13 294.03 C 987.45 294.64, 985.42 295.60, 981.68 298.44 C 977.94 301.28, 976.02 303.29, 972.43 308.21 C 968.84 313.13, 967.00 316.22, 963.71 323.03 C 960.42 329.85, 958.78 333.87, 956.00 342.30 C 953.22 350.73, 951.87 355.53, 949.80 365.18 C 947.72 374.83, 946.88 380.24, 945.62 390.55 C 944.37 400.86, 944.04 406.64, 943.53 416.73 C 943.02 426.81, 943.09 432.23, 943.09 440.97 C 943.09 449.71, 943.35 454.01, 943.54 460.43 C 943.73 466.85, 943.55 469.56, 944.02 473.07 C 944.50 476.58, 945.14 477.47, 945.91 477.98 C 946.67 478.49, 947.35 477.93, 947.85 475.62 C 948.34 473.31, 948.08 471.36, 948.39 466.43 C 948.70 461.49, 948.88 458.12, 949.39 450.95 C 949.90 443.79, 950.26 439.47, 950.94 430.60 C 951.61 421.74, 952.01 416.58, 952.75 406.64 C 953.50 396.70, 953.95 391.16, 954.68 380.90 C 955.40 370.64, 955.76 364.96, 956.36 355.35 C 956.95 345.75, 957.18 340.69, 957.66 332.88 C 958.15 325.06, 958.41 321.54, 958.79 316.28 C 959.18 311.02, 959.57 309.31, 959.60 306.57 C 959.63 303.82, 959.34 303.39, 958.93 302.57 C 958.51 301.74, 958.06 301.70, 957.52 302.46" style="stroke: black; fill: black;"/><path d="M 1080.68,309.56 C 1081.18 308.98, 1081.37 308.22, 1081.41 306.89 C 1081.46 305.56, 1081.48 304.57, 1080.91 302.90 C 1080.34 301.23, 1079.89 299.99, 1078.58 298.53 C 1077.27 297.06, 1076.41 296.25, 1074.38 295.56 C 1072.34 294.86, 1071.08 294.44, 1068.41 295.06 C 1065.75 295.68, 1064.18 296.27, 1061.04 298.67 C 1057.90 301.08, 1056.20 302.71, 1052.71 307.10 C 1049.22 311.48, 1047.17 314.32, 1043.60 320.58 C 1040.02 326.85, 1037.98 330.91, 1034.83 338.41 C 1031.69 345.91, 1030.07 350.51, 1027.87 358.07 C 1025.67 365.64, 1024.79 369.78, 1023.85 376.23 C 1022.91 382.67, 1022.82 385.65, 1023.17 390.29 C 1023.52 394.92, 1023.98 396.76, 1025.59 399.39 C 1027.20 402.03, 1028.65 402.83, 1031.23 403.47 C 1033.80 404.11, 1035.53 404.02, 1038.47 402.59 C 1041.41 401.16, 1042.87 399.77, 1045.94 396.33 C 1049.01 392.88, 1050.60 390.62, 1053.81 385.37 C 1057.01 380.12, 1058.75 376.76, 1061.95 370.08 C 1065.15 363.40, 1066.84 359.22, 1069.81 351.98 C 1072.78 344.75, 1074.28 340.46, 1076.78 333.92 C 1079.29 327.37, 1080.58 323.98, 1082.34 319.27 C 1084.11 314.56, 1085.05 312.44, 1085.62 310.37 C 1086.18 308.29, 1085.52 307.76, 1085.17 308.90 C 1084.81 310.04, 1084.39 311.78, 1083.85 316.08 C 1083.30 320.38, 1083.03 323.85, 1082.44 330.41 C 1081.84 336.97, 1081.44 341.47, 1080.88 348.88 C 1080.31 356.28, 1079.92 360.67, 1079.61 367.42 C 1079.30 374.17, 1079.19 377.48, 1079.33 382.63 C 1079.48 387.78, 1079.52 389.92, 1080.33 393.18 C 1081.14 396.44, 1081.81 397.63, 1083.39 398.93 C 1084.97 400.24, 1086.21 400.48, 1088.22 399.71 C 1090.22 398.93, 1091.38 398.05, 1093.43 395.06 C 1095.48 392.08, 1096.25 389.90, 1098.47 384.78 C 1100.69 379.67, 1101.93 376.28, 1104.53 369.50 C 1107.13 362.73, 1108.64 358.35, 1111.49 350.90 C 1114.34 343.45, 1115.96 339.04, 1118.77 332.26 C 1121.58 325.47, 1123.09 321.96, 1125.55 316.98 C 1128.01 312.00, 1129.56 309.84, 1131.07 307.37 C 1132.58 304.89, 1132.64 304.13, 1133.10 304.62 C 1133.56 305.12, 1133.34 306.28, 1133.37 309.85 C 1133.40 313.41, 1133.54 316.43, 1133.25 322.46 C 1132.96 328.48, 1132.59 332.74, 1131.92 339.98 C 1131.26 347.21, 1130.71 351.66, 1129.94 358.61 C 1129.17 365.57, 1128.67 369.19, 1128.07 374.75 C 1127.47 380.31, 1127.03 382.76, 1126.95 386.42 C 1126.86 390.07, 1126.95 391.48, 1127.64 393.05 C 1128.33 394.61, 1129.18 394.97, 1130.39 394.24 C 1131.59 393.52, 1132.43 392.61, 1133.67 389.42 C 1134.91 386.23, 1135.13 383.76, 1136.60 378.31 C 1138.07 372.86, 1138.92 369.09, 1141.04 362.17 C 1143.17 355.24, 1144.52 350.78, 1147.22 343.69 C 1149.93 336.60, 1151.63 332.58, 1154.59 326.72 C 1157.55 320.86, 1159.28 318.13, 1162.03 314.39 C 1164.77 310.66, 1166.28 309.59, 1168.30 308.05 C 1170.31 306.52, 1170.89 306.15, 1172.11 306.73 C 1173.33 307.32, 1173.52 308.10, 1174.41 310.98 C 1175.31 313.87, 1175.92 316.07, 1176.59 321.15 C 1177.27 326.24, 1177.51 329.82, 1177.79 336.42 C 1178.07 343.02, 1177.97 347.22, 1178.00 354.15 C 1178.04 361.07, 1177.90 364.95, 1177.97 371.06 C 1178.03 377.17, 1178.00 380.09, 1178.33 384.71 C 1178.65 389.33, 1178.62 391.26, 1179.59 394.16 C 1180.56 397.05, 1181.43 398.09, 1183.17 399.19 C 1184.92 400.30, 1186.16 400.50, 1188.31 399.67 C 1190.46 398.85, 1191.68 397.96, 1193.93 395.07 C 1196.18 392.19, 1197.14 390.10, 1199.55 385.25 C 1201.97 380.41, 1203.33 377.26, 1206.00 370.86 C 1208.67 364.45, 1210.21 360.37, 1212.92 353.22 C 1215.62 346.06, 1217.11 341.80, 1219.53 335.07 C 1221.95 328.34, 1223.13 324.81, 1225.02 319.57 C 1226.90 314.32, 1227.97 312.08, 1228.96 308.85 C 1229.95 305.61, 1230.10 304.30, 1229.98 303.38 C 1229.86 302.46, 1228.99 302.50, 1228.37 304.25 C 1227.75 305.99, 1227.43 307.82, 1226.88 312.10 C 1226.33 316.38, 1226.10 319.56, 1225.63 325.66 C 1225.16 331.75, 1224.80 335.80, 1224.54 342.56 C 1224.28 349.31, 1224.13 353.23, 1224.33 359.43 C 1224.54 365.64, 1224.73 368.72, 1225.55 373.58 C 1226.37 378.43, 1226.86 380.54, 1228.43 383.72 C 1230.00 386.91, 1231.06 388.11, 1233.39 389.50 C 1235.73 390.89, 1237.30 391.26, 1240.12 390.65 C 1242.95 390.05, 1244.56 389.09, 1247.52 386.48 C 1250.48 383.88, 1251.94 381.95, 1254.92 377.62 C 1257.89 373.29, 1259.40 370.53, 1262.40 364.83 C 1265.41 359.14, 1267.04 355.54, 1269.95 349.14 C 1272.86 342.75, 1274.38 338.96, 1276.96 332.85 C 1279.53 326.73, 1280.80 323.48, 1282.85 318.58 C 1284.90 313.69, 1286.17 311.28, 1287.20 308.38 C 1288.23 305.48, 1288.06 304.23, 1287.97 304.07 C 1287.89 303.90, 1287.18 304.46, 1286.76 307.56 C 1286.34 310.65, 1286.46 313.26, 1285.87 319.54 C 1285.28 325.83, 1284.81 330.14, 1283.81 339.00 C 1282.81 347.86, 1282.17 353.34, 1280.86 363.86 C 1279.56 374.37, 1278.81 380.37, 1277.29 391.59 C 1275.77 402.80, 1274.95 408.84, 1273.28 419.94 C 1271.60 431.04, 1270.73 436.77, 1268.90 447.08 C 1267.07 457.39, 1266.16 462.43, 1264.11 471.48 C 1262.06 480.53, 1260.95 484.85, 1258.64 492.33 C 1256.33 499.80, 1255.07 503.24, 1252.57 508.86 C 1250.07 514.48, 1248.77 516.80, 1246.13 520.42 C 1243.50 524.03, 1242.06 525.26, 1239.39 526.92 C 1236.71 528.58, 1235.48 528.82, 1232.77 528.74 C 1230.06 528.65, 1228.72 528.20, 1225.84 526.49 C 1222.95 524.79, 1221.26 523.48, 1218.35 520.21 C 1215.45 516.94, 1213.81 514.75, 1211.29 510.16 C 1208.77 505.57, 1207.43 502.76, 1205.74 497.27 C 1204.04 491.78, 1203.29 488.66, 1202.82 482.72 C 1202.35 476.78, 1202.45 473.55, 1203.39 467.59 C 1204.34 461.63, 1205.12 458.63, 1207.54 452.93 C 1209.96 447.23, 1211.66 444.39, 1215.48 439.09 C 1219.29 433.79, 1221.76 431.17, 1226.61 426.44 C 1231.45 421.71, 1234.30 419.46, 1239.69 415.43 C 1245.08 411.40, 1248.13 409.50, 1253.57 406.27 C 1259.00 403.05, 1261.88 401.65, 1266.86 399.31 C 1271.84 396.96, 1274.30 396.04, 1278.48 394.53 C 1282.65 393.03, 1284.78 392.67, 1287.75 391.77 C 1290.72 390.87, 1291.68 390.63, 1293.33 390.05 C 1294.98 389.48, 1295.51 389.33, 1296.02 388.91 C 1296.52 388.49, 1296.49 388.18, 1295.86 387.95 C 1295.22 387.71, 1294.64 387.58, 1292.84 387.74 C 1291.04 387.90, 1289.89 387.84, 1286.84 388.74 C 1283.79 389.65, 1281.77 390.52, 1277.59 392.26 C 1273.42 394.01, 1270.96 394.98, 1265.97 397.46 C 1260.97 399.94, 1258.08 401.37, 1252.61 404.68 C 1247.14 407.99, 1244.07 409.90, 1238.62 414.00 C 1233.17 418.10, 1230.29 420.36, 1225.37 425.17 C 1220.44 429.98, 1217.92 432.63, 1214.01 438.04 C 1210.11 443.44, 1208.34 446.36, 1205.83 452.21 C 1203.33 458.06, 1202.50 461.15, 1201.50 467.28 C 1200.49 473.42, 1200.38 476.75, 1200.81 482.87 C 1201.24 488.99, 1201.99 492.21, 1203.66 497.90 C 1205.33 503.58, 1206.63 506.48, 1209.15 511.31 C 1211.67 516.14, 1213.23 518.47, 1216.26 522.03 C 1219.29 525.59, 1221.00 527.17, 1224.30 529.10 C 1227.59 531.04, 1229.43 531.72, 1232.73 531.72 C 1236.03 531.71, 1237.77 531.11, 1240.79 529.09 C 1243.81 527.07, 1245.18 525.53, 1247.84 521.62 C 1250.50 517.71, 1251.68 515.30, 1254.11 509.52 C 1256.53 503.74, 1257.74 500.29, 1259.98 492.73 C 1262.21 485.17, 1263.29 480.83, 1265.30 471.74 C 1267.30 462.65, 1268.19 457.60, 1270.00 447.27 C 1271.82 436.95, 1272.68 431.21, 1274.36 420.10 C 1276.04 409.00, 1276.86 402.96, 1278.42 391.74 C 1279.97 380.52, 1280.74 374.53, 1282.15 364.02 C 1283.55 353.51, 1284.26 348.05, 1285.45 339.21 C 1286.64 330.36, 1287.27 326.09, 1288.11 319.80 C 1288.94 313.50, 1289.65 310.98, 1289.62 307.73 C 1289.58 304.49, 1288.93 303.65, 1287.93 303.56 C 1286.94 303.47, 1286.07 304.44, 1284.64 307.28 C 1283.21 310.12, 1282.68 312.80, 1280.79 317.76 C 1278.90 322.73, 1277.70 325.99, 1275.18 332.11 C 1272.67 338.22, 1271.14 342.00, 1268.21 348.34 C 1265.28 354.69, 1263.61 358.26, 1260.53 363.82 C 1257.45 369.37, 1255.83 372.06, 1252.81 376.11 C 1249.79 380.17, 1248.13 381.80, 1245.44 384.08 C 1242.75 386.37, 1241.49 386.93, 1239.36 387.54 C 1237.23 388.15, 1236.50 388.14, 1234.80 387.13 C 1233.11 386.12, 1232.29 385.29, 1230.88 382.50 C 1229.48 379.71, 1228.68 377.80, 1227.78 373.17 C 1226.88 368.54, 1226.61 365.46, 1226.38 359.36 C 1226.16 353.26, 1226.29 349.35, 1226.65 342.66 C 1227.02 335.97, 1227.52 331.93, 1228.21 325.90 C 1228.90 319.87, 1229.58 316.78, 1230.09 312.50 C 1230.61 308.22, 1231.00 306.43, 1230.78 304.51 C 1230.56 302.59, 1229.87 302.22, 1228.99 302.91 C 1228.12 303.60, 1227.57 304.78, 1226.39 307.98 C 1225.21 311.18, 1224.79 313.61, 1223.08 318.91 C 1221.37 324.21, 1220.21 327.74, 1217.84 334.47 C 1215.47 341.21, 1213.98 345.46, 1211.24 352.57 C 1208.49 359.69, 1206.91 363.76, 1204.12 370.05 C 1201.32 376.34, 1199.83 379.45, 1197.24 384.03 C 1194.66 388.61, 1193.24 390.34, 1191.21 392.96 C 1189.17 395.58, 1188.43 396.25, 1187.07 397.13 C 1185.72 398.02, 1185.37 398.16, 1184.44 397.38 C 1183.52 396.61, 1183.20 395.83, 1182.44 393.26 C 1181.69 390.68, 1181.14 388.95, 1180.65 384.50 C 1180.16 380.05, 1180.11 377.10, 1179.98 371.03 C 1179.84 364.96, 1179.97 361.08, 1179.97 354.14 C 1179.98 347.21, 1180.13 343.01, 1179.99 336.35 C 1179.84 329.69, 1179.77 326.13, 1179.25 320.85 C 1178.73 315.56, 1178.65 313.14, 1177.39 309.93 C 1176.12 306.72, 1175.05 305.63, 1172.92 304.81 C 1170.79 303.99, 1169.26 304.16, 1166.73 305.82 C 1164.20 307.49, 1163.01 309.12, 1160.25 313.13 C 1157.49 317.14, 1155.87 319.91, 1152.92 325.89 C 1149.98 331.87, 1148.30 335.91, 1145.53 343.04 C 1142.77 350.17, 1141.40 354.64, 1139.10 361.54 C 1136.80 368.44, 1135.78 372.19, 1134.03 377.54 C 1132.28 382.88, 1131.29 385.12, 1130.34 388.26 C 1129.38 391.40, 1129.40 392.37, 1129.23 393.25 C 1129.06 394.13, 1129.41 394.01, 1129.49 392.66 C 1129.57 391.31, 1129.50 390.04, 1129.63 386.50 C 1129.76 382.95, 1129.69 380.48, 1130.13 374.95 C 1130.57 369.41, 1131.06 365.77, 1131.83 358.82 C 1132.60 351.87, 1133.19 347.42, 1133.97 340.18 C 1134.75 332.94, 1135.27 328.71, 1135.72 322.61 C 1136.17 316.51, 1136.60 313.48, 1136.20 309.68 C 1135.81 305.89, 1135.18 304.40, 1133.75 303.65 C 1132.31 302.89, 1131.02 303.42, 1129.01 305.91 C 1127.01 308.40, 1126.08 310.97, 1123.72 316.10 C 1121.35 321.24, 1119.93 324.76, 1117.16 331.60 C 1114.39 338.43, 1112.76 342.84, 1109.86 350.27 C 1106.97 357.71, 1105.42 362.08, 1102.68 368.77 C 1099.94 375.46, 1098.56 378.83, 1096.15 383.71 C 1093.74 388.59, 1092.44 390.42, 1090.62 393.17 C 1088.81 395.93, 1088.23 396.64, 1087.08 397.48 C 1085.92 398.33, 1085.66 398.40, 1084.85 397.41 C 1084.03 396.42, 1083.67 395.52, 1083.00 392.55 C 1082.32 389.57, 1081.77 387.54, 1081.47 382.53 C 1081.18 377.53, 1081.24 374.20, 1081.52 367.51 C 1081.79 360.81, 1082.19 356.41, 1082.85 349.04 C 1083.52 341.67, 1084.08 337.19, 1084.85 330.66 C 1085.61 324.12, 1086.34 320.75, 1086.68 316.37 C 1087.01 311.99, 1087.13 310.14, 1086.52 308.76 C 1085.92 307.39, 1084.91 307.53, 1083.65 309.48 C 1082.40 311.43, 1081.97 313.74, 1080.25 318.50 C 1078.54 323.26, 1077.51 326.72, 1075.10 333.29 C 1072.69 339.85, 1071.18 344.13, 1068.22 351.33 C 1065.25 358.52, 1063.53 362.69, 1060.27 369.26 C 1057.01 375.83, 1055.20 379.15, 1051.92 384.18 C 1048.64 389.20, 1046.87 391.32, 1043.87 394.40 C 1040.88 397.48, 1039.36 398.29, 1036.94 399.59 C 1034.53 400.88, 1033.60 401.20, 1031.80 400.87 C 1030.00 400.55, 1029.24 400.12, 1027.94 397.97 C 1026.65 395.81, 1025.79 394.39, 1025.32 390.09 C 1024.86 385.79, 1024.80 382.78, 1025.62 376.47 C 1026.45 370.16, 1027.30 366.01, 1029.45 358.53 C 1031.61 351.05, 1033.23 346.47, 1036.39 339.07 C 1039.55 331.68, 1041.63 327.64, 1045.27 321.56 C 1048.91 315.48, 1051.05 312.71, 1054.60 308.67 C 1058.14 304.63, 1060.04 303.34, 1062.98 301.38 C 1065.93 299.43, 1067.28 299.37, 1069.31 298.89 C 1071.35 298.40, 1072.00 298.53, 1073.15 298.98 C 1074.30 299.43, 1074.45 300.03, 1075.07 301.15 C 1075.69 302.26, 1075.77 303.24, 1076.26 304.55 C 1076.74 305.86, 1076.98 306.64, 1077.51 307.69 C 1078.04 308.74, 1078.28 309.43, 1078.91 309.80 C 1079.55 310.18, 1080.18 310.14, 1080.68 309.56" style="stroke: black; fill: black;"/></svg>